<mxfile host="app.diagrams.net" modified="2022-05-25T10:22:36.076Z" agent="5.0 (Windows NT 6.1; Win64; x64) AppleWebKit/537.36 (KHTML, like Gecko) Chrome/101.0.4951.64 Safari/537.36 Edg/101.0.1210.53" etag="KcT6-EJw-LmrUI0RnXHO" version="18.0.7" type="github">
  <diagram id="Af0x8LHKfIoiNAxgAq2c" name="Page-1">
    <mxGraphModel dx="1422" dy="834" grid="1" gridSize="10" guides="1" tooltips="1" connect="1" arrows="1" fold="1" page="1" pageScale="1" pageWidth="850" pageHeight="1100" math="0" shadow="0">
      <root>
        <mxCell id="0" />
        <mxCell id="1" parent="0" />
        <mxCell id="VKHEqwNDC2GjloN4SImg-10" style="edgeStyle=orthogonalEdgeStyle;rounded=0;orthogonalLoop=1;jettySize=auto;html=1;exitX=0.5;exitY=0;exitDx=0;exitDy=0;" edge="1" parent="1" source="VKHEqwNDC2GjloN4SImg-1" target="VKHEqwNDC2GjloN4SImg-3">
          <mxGeometry relative="1" as="geometry" />
        </mxCell>
        <mxCell id="VKHEqwNDC2GjloN4SImg-13" style="edgeStyle=orthogonalEdgeStyle;rounded=0;orthogonalLoop=1;jettySize=auto;html=1;exitX=0.5;exitY=1;exitDx=0;exitDy=0;entryX=0.5;entryY=0;entryDx=0;entryDy=0;" edge="1" parent="1" source="VKHEqwNDC2GjloN4SImg-1" target="VKHEqwNDC2GjloN4SImg-5">
          <mxGeometry relative="1" as="geometry" />
        </mxCell>
        <mxCell id="VKHEqwNDC2GjloN4SImg-1" value="Contact" style="rounded=0;whiteSpace=wrap;html=1;" vertex="1" parent="1">
          <mxGeometry x="190" y="330" width="120" height="60" as="geometry" />
        </mxCell>
        <mxCell id="VKHEqwNDC2GjloN4SImg-2" value="Member level" style="rounded=0;whiteSpace=wrap;html=1;" vertex="1" parent="1">
          <mxGeometry x="410" y="310" width="120" height="60" as="geometry" />
        </mxCell>
        <mxCell id="VKHEqwNDC2GjloN4SImg-7" style="edgeStyle=orthogonalEdgeStyle;rounded=0;orthogonalLoop=1;jettySize=auto;html=1;exitX=1;exitY=0.5;exitDx=0;exitDy=0;" edge="1" parent="1" source="VKHEqwNDC2GjloN4SImg-3" target="VKHEqwNDC2GjloN4SImg-4">
          <mxGeometry relative="1" as="geometry" />
        </mxCell>
        <mxCell id="VKHEqwNDC2GjloN4SImg-9" style="edgeStyle=orthogonalEdgeStyle;rounded=0;orthogonalLoop=1;jettySize=auto;html=1;exitX=0.75;exitY=1;exitDx=0;exitDy=0;" edge="1" parent="1" source="VKHEqwNDC2GjloN4SImg-3" target="VKHEqwNDC2GjloN4SImg-2">
          <mxGeometry relative="1" as="geometry" />
        </mxCell>
        <mxCell id="VKHEqwNDC2GjloN4SImg-3" value="Member" style="rounded=0;whiteSpace=wrap;html=1;" vertex="1" parent="1">
          <mxGeometry x="250" y="160" width="120" height="60" as="geometry" />
        </mxCell>
        <mxCell id="VKHEqwNDC2GjloN4SImg-8" style="edgeStyle=orthogonalEdgeStyle;rounded=0;orthogonalLoop=1;jettySize=auto;html=1;exitX=1;exitY=0.5;exitDx=0;exitDy=0;entryX=0.5;entryY=0;entryDx=0;entryDy=0;" edge="1" parent="1" source="VKHEqwNDC2GjloN4SImg-4" target="VKHEqwNDC2GjloN4SImg-6">
          <mxGeometry relative="1" as="geometry" />
        </mxCell>
        <mxCell id="VKHEqwNDC2GjloN4SImg-4" value="Bonus point" style="rounded=0;whiteSpace=wrap;html=1;" vertex="1" parent="1">
          <mxGeometry x="570" y="170" width="120" height="60" as="geometry" />
        </mxCell>
        <mxCell id="VKHEqwNDC2GjloN4SImg-5" value="Country" style="rounded=0;whiteSpace=wrap;html=1;" vertex="1" parent="1">
          <mxGeometry x="330" y="480" width="120" height="60" as="geometry" />
        </mxCell>
        <mxCell id="VKHEqwNDC2GjloN4SImg-6" value="Bonus point usage" style="rounded=0;whiteSpace=wrap;html=1;" vertex="1" parent="1">
          <mxGeometry x="700" y="300" width="120" height="60" as="geometry" />
        </mxCell>
      </root>
    </mxGraphModel>
  </diagram>
</mxfile>
